<svg width="60" height="60" viewBox="0 0 60 60" fill="none" xmlns="http://www.w3.org/2000/svg">
<path d="M53.3333 0H6.6333C2.9333 0 0.0333659 3 0.0333659 6.66667L0 53.3333C0 57 2.9333 60 6.6333 60H53.3333C57 60 60 57 60 53.3333V6.66667C60 3 57 0 53.3333 0ZM53.3333 40H40C40 45.5333 35.5 50 30 50C24.5 50 20 45.5333 20 40H6.6333V6.66667H53.3333V40Z" fill="white"/>
<path d="M36.6673 23.3327L43.334 23.3327L30.0007 36.666L16.6673 23.3327L23.334 23.3327L23.334 13.3327L36.6673 13.3327L36.6673 23.3327Z" fill="#F1F0F0"/>
</svg>
