<svg width="135" height="37" viewBox="0 0 135 37" fill="none" xmlns="http://www.w3.org/2000/svg">
<path d="M27.0732 12.0872C23.8646 12.0913 20.7888 13.3687 18.5214 15.639C16.254 17.9093 14.9805 20.9867 14.9805 24.1953V36.2899H21.0268V24.1953C21.0309 22.5922 21.6689 21.0559 22.8018 19.9216C23.9346 18.7873 25.4701 18.1473 27.0732 18.1412C27.7263 18.1398 28.3754 18.2443 28.9951 18.4507L32.3296 13.2846C30.6936 12.4844 28.8943 12.0745 27.0732 12.0872Z" fill="#D7D7D7"/>
<path d="M35.2601 32.74C34.1177 31.6328 33.214 30.3036 32.6045 28.8341C31.995 27.3646 31.6927 25.7859 31.7161 24.1952C31.7161 20.8639 32.8974 18.0175 35.2601 15.6561C36.3648 14.5071 37.6938 13.5974 39.1647 12.9834C40.6356 12.3695 42.217 12.0644 43.8107 12.0871C47.142 12.0871 49.9884 13.2717 52.3498 15.6407C54.7112 18.0098 55.8964 20.8613 55.9053 24.1952V36.2898H49.8571V24.1952C49.8563 23 49.5012 21.8318 48.8367 20.8383C48.1721 19.8449 47.228 19.0707 46.1235 18.6138C45.0191 18.1568 43.804 18.0376 42.6318 18.2711C41.4596 18.5046 40.3829 19.0804 39.5379 19.9257C38.6929 20.7709 38.1174 21.8478 37.8843 23.0201C37.6512 24.1923 37.7708 25.4074 38.2281 26.5117C38.6854 27.616 39.4599 28.5599 40.4535 29.2241C41.4472 29.8883 42.6155 30.2431 43.8107 30.2434V36.2898C42.2185 36.3138 40.6383 36.0112 39.1677 35.4007C37.697 34.7902 36.3671 33.8846 35.2601 32.74Z" fill="#D7D7D7"/>
<path d="M70.8856 30.236C69.6903 30.2377 68.5213 29.8846 67.5267 29.2214C66.5322 28.5583 65.7568 27.6148 65.2989 26.5107C64.841 25.4065 64.7211 24.1912 64.9543 23.0188C65.1876 21.8465 65.7636 20.7697 66.6094 19.9249C67.1615 19.35 67.8262 18.8949 68.5619 18.5881C69.2976 18.2813 70.0886 18.1292 70.8856 18.1414H76.9454V12.0873H70.8856C69.293 12.0626 67.7123 12.3653 66.2415 12.9766C64.7706 13.5879 63.441 14.4947 62.335 15.641C59.9736 18.0126 58.7923 20.8641 58.791 24.1954C58.7915 27.4029 60.0659 30.4789 62.334 32.747C64.6021 35.0151 67.6781 36.2895 70.8856 36.29H76.9454V30.236H70.8856Z" fill="#D7D7D7"/>
<path d="M83.9965 32.7398C82.8537 31.6329 81.9497 30.3037 81.3402 28.8342C80.7307 27.3646 80.4286 25.7858 80.4525 24.195V0H86.4988V12.0869H92.5452V18.141H86.4988V24.195C86.4993 25.7986 87.1365 27.3364 88.2702 28.4705C89.404 29.6046 90.9416 30.2422 92.5452 30.2432V36.2896C90.9533 36.3135 89.3734 36.0108 87.9031 35.4003C86.4328 34.7897 85.1032 33.8843 83.9965 32.7398Z" fill="#D7D7D7"/>
<path d="M98.4835 32.7401C97.36 31.6186 96.4687 30.2865 95.8606 28.8201C95.2525 27.3537 94.9395 25.7818 94.9395 24.1943C94.9395 22.6068 95.2525 21.0349 95.8606 19.5686C96.4687 18.1022 97.36 16.7701 98.4835 15.6485C99.5888 14.5009 100.918 13.5926 102.389 12.98C103.86 12.3674 105.441 12.0635 107.034 12.0872C110.365 12.0872 113.212 13.2718 115.573 15.6408C117.935 18.0099 119.119 20.8614 119.127 24.1953V36.2899H113.08V24.1953C113.08 22.9995 112.725 21.8307 112.06 20.8366C111.396 19.8426 110.451 19.0679 109.347 18.6106C108.242 18.1532 107.026 18.0338 105.853 18.2673C104.681 18.5008 103.603 19.0768 102.758 19.9225C101.913 20.7682 101.337 21.8455 101.104 23.0183C100.871 24.1912 100.99 25.4068 101.448 26.5115C101.906 27.6162 102.681 28.5604 103.675 29.2247C104.669 29.889 105.838 30.2436 107.034 30.2436V36.2899C105.442 36.3139 103.862 36.0114 102.391 35.4008C100.92 34.7903 99.5905 33.8847 98.4835 32.7401Z" fill="#D7D7D7"/>
<path d="M126.049 32.7398C124.906 31.6329 124.002 30.3037 123.393 28.8342C122.783 27.3646 122.481 25.7858 122.505 24.195V0H128.552V24.195C128.552 25.7989 129.189 27.337 130.324 28.4712C131.458 29.6054 132.996 30.2427 134.6 30.2432V36.2896C133.008 36.3136 131.427 36.011 129.957 35.4005C128.486 34.79 127.156 33.8844 126.049 32.7398Z" fill="#D7D7D7"/>
<path d="M12.0946 0C8.7556 0 5.9054 1.18518 3.54401 3.55554C1.18262 5.9259 0.00128128 8.7697 0 12.0869V36.2819H6.04827V24.195H12.0946V18.141H6.04827V12.0869C6.05384 10.4849 6.69259 8.94999 7.82524 7.81698C8.95789 6.68397 10.4926 6.04473 12.0946 6.03866L32.1652 6.11746V0H12.0946Z" fill="#D7D7D7"/>
</svg>
