<svg width="48" height="48" viewBox="0 0 48 48" fill="none" xmlns="http://www.w3.org/2000/svg">
<path d="M41.3847 35.5848H37.518V29.7848C37.518 29.2721 37.3143 28.7803 36.9518 28.4177C36.5892 28.0552 36.0974 27.8515 35.5847 27.8515H25.918V22.6122L28.1027 23.7528C28.4213 23.9195 28.78 23.994 29.1387 23.968C29.4973 23.942 29.8415 23.8165 30.1327 23.6056C30.424 23.3947 30.6506 23.1068 30.7872 22.7742C30.9238 22.4416 30.965 22.0775 30.906 21.7228L30.1327 17.1408L33.458 13.8735C33.7099 13.6275 33.8898 13.3175 33.9784 12.9768C34.067 12.6361 34.0608 12.2776 33.9607 11.9402C33.8486 11.5966 33.6425 11.2912 33.3657 11.0589C33.0889 10.8265 32.7525 10.6764 32.3947 10.6255L27.8513 9.91016L25.7247 5.73417C25.5664 5.4073 25.3192 5.13163 25.0115 4.93874C24.7037 4.74586 24.3479 4.64355 23.9847 4.64355C23.6215 4.64355 23.2657 4.74586 22.9579 4.93874C22.6502 5.13163 22.403 5.4073 22.2447 5.73417L20.118 9.91016L15.4974 10.5868C15.1395 10.6377 14.8031 10.7878 14.5263 11.0202C14.2495 11.2526 14.0434 11.5579 13.9314 11.9015C13.8312 12.239 13.8251 12.5974 13.9136 12.9381C14.0022 13.2788 14.1822 13.5889 14.434 13.8348L17.8367 17.1408L17.0634 21.7228C17.0044 22.0775 17.0456 22.4416 17.1822 22.7742C17.3188 23.1068 17.5454 23.3947 17.8366 23.6056C18.1278 23.8165 18.4721 23.942 18.8307 23.968C19.1893 23.994 19.5481 23.9195 19.8667 23.7528L22.0514 22.6122V27.8515H12.3847C11.8719 27.8515 11.3802 28.0552 11.0176 28.4177C10.6551 28.7803 10.4514 29.2721 10.4514 29.7848V35.5848H6.5847C6.07195 35.5848 5.5802 35.7885 5.21763 36.1511C4.85506 36.5136 4.65137 37.0054 4.65137 37.5181V41.3848C4.65137 41.8976 4.85506 42.3893 5.21763 42.7519C5.5802 43.1145 6.07195 43.3181 6.5847 43.3181C7.09745 43.3181 7.5892 43.1145 7.95177 42.7519C8.31434 42.3893 8.51803 41.8976 8.51803 41.3848V39.4515H16.2514V41.3848C16.2514 41.8976 16.455 42.3893 16.8176 42.7519C17.1802 43.1145 17.6719 43.3181 18.1847 43.3181C18.6974 43.3181 19.1892 43.1145 19.5518 42.7519C19.9143 42.3893 20.118 41.8976 20.118 41.3848V37.5181C20.118 37.0054 19.9143 36.5136 19.5518 36.1511C19.1892 35.7885 18.6974 35.5848 18.1847 35.5848H14.318V31.7181H33.6513V35.5848H29.7847C29.2719 35.5848 28.7802 35.7885 28.4176 36.1511C28.055 36.5136 27.8513 37.0054 27.8513 37.5181V41.3848C27.8513 41.8976 28.055 42.3893 28.4176 42.7519C28.7802 43.1145 29.2719 43.3181 29.7847 43.3181C30.2974 43.3181 30.7892 43.1145 31.1518 42.7519C31.5143 42.3893 31.718 41.8976 31.718 41.3848V39.4515H39.4513V41.3848C39.4513 41.8976 39.655 42.3893 40.0176 42.7519C40.3802 43.1145 40.8719 43.3181 41.3847 43.3181C41.8974 43.3181 42.3892 43.1145 42.7517 42.7519C43.1143 42.3893 43.318 41.8976 43.318 41.3848V37.5181C43.318 37.0054 43.1143 36.5136 42.7517 36.1511C42.3892 35.7885 41.8974 35.5848 41.3847 35.5848ZM23.9847 17.4695C23.6673 17.4711 23.3553 17.5508 23.076 17.7015L21.5294 18.5135L21.8194 16.7735C21.8701 16.4657 21.8456 16.1502 21.748 15.854C21.6503 15.5577 21.4825 15.2895 21.2587 15.0722L20.002 13.8348L21.742 13.5835C22.0533 13.5419 22.3498 13.4251 22.6058 13.2432C22.8618 13.0613 23.0697 12.8198 23.2114 12.5395L23.9847 10.9542L24.758 12.5395C24.8997 12.8198 25.1076 13.0613 25.3636 13.2432C25.6196 13.4251 25.9161 13.5419 26.2274 13.5835L27.9674 13.8348L26.7107 15.0722C26.4869 15.2895 26.319 15.5577 26.2214 15.854C26.1238 16.1502 26.0993 16.4657 26.15 16.7735L26.44 18.5135L24.8934 17.7015C24.6141 17.5508 24.302 17.4711 23.9847 17.4695Z" fill="#5332D8"/>
</svg>
