<svg width="184" height="50" viewBox="0 0 184 50" fill="none" xmlns="http://www.w3.org/2000/svg">
<path d="M36.9422 16.4922C32.5641 16.4978 28.3672 18.2409 25.2734 21.3386C22.1796 24.4364 20.4418 28.6355 20.4418 33.0136V49.5166H28.692V33.0136C28.6975 30.8262 29.5682 28.7299 31.1139 27.1822C32.6596 25.6345 34.7549 24.7612 36.9422 24.7529C37.8334 24.751 38.7191 24.8936 39.5646 25.1751L44.1146 18.126C41.8823 17.0342 39.4272 16.4749 36.9422 16.4922Z" fill="#5332D8"/>
<path d="M48.1139 44.6729C46.5551 43.1622 45.3219 41.3484 44.4903 39.3433C43.6586 37.3382 43.2461 35.1841 43.2781 33.0136C43.2781 28.468 44.89 24.5842 48.1139 21.3621C49.6212 19.7943 51.4346 18.553 53.4416 17.7152C55.4487 16.8775 57.6065 16.4612 59.7811 16.4922C64.3267 16.4922 68.2105 18.1085 71.4326 21.3411C74.6547 24.5737 76.2719 28.4645 76.2841 33.0136V49.5166H68.0313V33.0136C68.0302 31.3827 67.5457 29.7887 66.639 28.4332C65.7322 27.0776 64.4439 26.0213 62.9369 25.3978C61.4299 24.7743 59.7719 24.6116 58.1724 24.9302C56.573 25.2488 55.1039 26.0344 53.9509 27.1878C52.7979 28.3412 52.0127 29.8106 51.6946 31.4101C51.3765 33.0097 51.5397 34.6676 52.1637 36.1744C52.7877 37.6812 53.8444 38.9692 55.2003 39.8755C56.5561 40.7818 58.1502 41.2659 59.7811 41.2664V49.5166C57.6086 49.5494 55.4524 49.1365 53.4457 48.3034C51.439 47.4703 49.6244 46.2347 48.1139 44.6729Z" fill="#5332D8"/>
<path d="M96.7233 41.2557C95.0923 41.2581 93.4972 40.7763 92.1401 39.8714C90.7831 38.9665 89.7251 37.6792 89.1003 36.1725C88.4755 34.6659 88.3118 33.0077 88.6302 31.408C88.9485 29.8083 89.7344 28.339 90.8884 27.1863C91.6418 26.4019 92.5487 25.7809 93.5526 25.3623C94.5565 24.9436 95.6358 24.7361 96.7233 24.7527H104.992V16.492H96.7233C94.5502 16.4583 92.3934 16.8713 90.3864 17.7054C88.3795 18.5395 86.5652 19.7769 85.0561 21.3409C81.834 24.577 80.2221 28.4678 80.2203 33.0134C80.221 37.39 81.96 41.5872 85.0547 44.682C88.1495 47.7768 92.3467 49.5157 96.7233 49.5164H104.992V41.2557H96.7233Z" fill="#5332D8"/>
<path d="M114.611 44.6731C113.052 43.1627 111.818 41.3491 110.987 39.3439C110.155 37.3386 109.743 35.1844 109.775 33.0137V-0.00012207H118.025V16.4924H126.276V24.7531H118.025V33.0137C118.026 35.2019 118.896 37.3002 120.443 38.8477C121.99 40.3951 124.088 41.2652 126.276 41.2666V49.5167C124.104 49.5494 121.948 49.1364 119.942 48.3033C117.935 47.4702 116.121 46.2347 114.611 44.6731Z" fill="#5332D8"/>
<path d="M134.379 44.6731C132.846 43.1427 131.63 41.3251 130.8 39.3242C129.97 37.3233 129.543 35.1785 129.543 33.0124C129.543 30.8463 129.97 28.7015 130.8 26.7006C131.63 24.6997 132.846 22.8821 134.379 21.3517C135.887 19.7858 137.701 18.5465 139.708 17.7106C141.715 16.8747 143.872 16.46 146.046 16.4924C150.592 16.4924 154.476 18.1087 157.698 21.3412C160.92 24.5738 162.536 28.4647 162.547 33.0137V49.5167H154.296V33.0137C154.296 31.3821 153.812 29.7873 152.905 28.4309C151.998 27.0745 150.709 26.0174 149.202 25.3934C147.694 24.7694 146.035 24.6064 144.435 24.925C142.835 25.2436 141.365 26.0296 140.212 27.1835C139.058 28.3374 138.272 29.8075 137.954 31.4078C137.636 33.0081 137.8 34.6668 138.424 36.1742C139.049 37.6815 140.106 38.9699 141.463 39.8763C142.82 40.7827 144.415 41.2665 146.046 41.2665V49.5167C143.874 49.5495 141.718 49.1366 139.711 48.3036C137.704 47.4705 135.889 46.2349 134.379 44.6731Z" fill="#5332D8"/>
<path d="M171.993 44.6731C170.433 43.1627 169.2 41.3491 168.368 39.3439C167.536 37.3386 167.124 35.1844 167.157 33.0137V-0.00012207H175.407V33.0137C175.408 35.2023 176.277 37.301 177.825 38.8486C179.373 40.3962 181.471 41.2659 183.66 41.2666V49.5167C181.487 49.5496 179.331 49.1367 177.324 48.3036C175.318 47.4705 173.503 46.2349 171.993 44.6731Z" fill="#5332D8"/>
<path d="M16.503 0C11.947 0 8.05788 1.61717 4.83577 4.85151C1.61367 8.08585 0.00174829 11.9662 0 16.4925V49.5064H8.25281V33.0139H16.503V24.7532H8.25281V16.4925C8.26041 14.3065 9.13198 12.2122 10.6775 10.6662C12.223 9.12023 14.317 8.24799 16.503 8.2397L43.8891 8.34722V0H16.503Z" fill="#5332D8"/>
</svg>
