<svg width="64" height="64" viewBox="0 0 64 64" fill="none" xmlns="http://www.w3.org/2000/svg">
<path d="M7.12949 12.6354H0.810547V56.8591C0.810547 60.3338 3.65407 63.1768 7.12949 63.1768H51.3621V56.8591H7.12949V12.6354ZM57.6811 0H19.7674C16.292 0 13.4484 2.84296 13.4484 6.31768V44.2238C13.4484 47.6985 16.292 50.5414 19.7674 50.5414H57.6811C61.1565 50.5414 64 47.6985 64 44.2238V6.31768C64 2.84296 61.1565 0 57.6811 0ZM54.5216 28.4296H41.8837V41.0649H35.5647V28.4296H22.9269V22.1119H35.5647V9.47652H41.8837V22.1119H54.5216V28.4296Z" fill="#5332D8"/>
</svg>
