<svg width="42" height="42" viewBox="0 0 42 42" fill="none" xmlns="http://www.w3.org/2000/svg">
<g clip-path="url(#clip0_160_34389)">
<path d="M41.3845 0.697499C41.5979 0.879661 41.7467 1.12598 41.8085 1.39965C41.8704 1.67332 41.842 1.95966 41.7277 2.2159C37.7497 11.1339 29.3959 23.4579 23.2807 29.8799C21.5667 31.6764 19.4528 33.0429 17.1109 33.8683C17.0641 34.4585 16.9549 35.2671 16.6949 36.1251C16.1723 37.8385 14.9607 39.9705 12.2541 40.6491C9.63291 41.2732 6.9164 41.3897 4.25135 40.9923C3.75579 40.914 3.2672 40.7966 2.79015 40.6413C2.3488 40.507 1.93745 40.2889 1.57855 39.9991C1.34188 39.7978 1.15951 39.5403 1.04815 39.2503C0.91014 38.8781 0.913842 38.4681 1.05855 38.0985C1.30555 37.4615 1.88015 37.1105 2.25715 36.9233C3.28155 36.4111 3.88215 35.7455 4.51135 34.7757C4.75835 34.4013 4.98975 34.0035 5.25755 33.5485L5.56175 33.0337C5.95435 32.3707 6.40935 31.6297 6.98135 30.8289C8.35415 28.9075 10.1039 28.4239 11.5209 28.4993C11.8485 28.5175 12.1527 28.5643 12.4257 28.6241C12.5869 28.1769 12.7949 27.6361 13.0445 27.0433C13.7231 25.4339 14.7553 23.3539 16.1307 21.6639C21.7883 14.7219 32.1987 5.5283 39.8349 0.593499C40.07 0.441762 40.3478 0.369924 40.627 0.388661C40.9061 0.407398 41.1718 0.515709 41.3845 0.697499V0.697499ZM12.4725 31.3567C12.1275 31.2066 11.7587 31.1186 11.3831 31.0967C10.7435 31.0629 9.89335 31.2267 9.09775 32.3421C8.58555 33.0571 8.17475 33.7253 7.79775 34.3623L7.52475 34.8225C7.24915 35.2931 6.97095 35.7637 6.69275 36.1953C6.16619 37.0484 5.49794 37.8055 4.71675 38.4339C6.51075 38.7251 9.23035 38.7225 11.6249 38.1219C13.0783 37.7605 13.8167 36.6425 14.2067 35.3659C14.395 34.7317 14.505 34.0768 14.5343 33.4159L12.4725 31.3567V31.3567ZM16.2165 31.4243C16.5285 31.3203 16.9367 31.1643 17.4073 30.9485C18.9051 30.2536 20.2589 29.2834 21.3983 28.0885C26.3383 22.8989 32.8695 13.6065 37.1335 5.6479C30.3995 10.6581 22.6619 17.7639 18.1483 23.3071C16.9991 24.7189 16.0813 26.5389 15.4391 28.0547C15.1245 28.8035 14.8827 29.4587 14.7241 29.9267V29.9293L16.2191 31.4243H16.2165ZM3.28675 39.3283L3.30495 39.3153C3.29936 39.3195 3.29324 39.323 3.28675 39.3257V39.3283ZM12.5999 31.4165L12.6051 31.4191H12.5999V31.4165Z" fill="#5332D8"/>
</g>
<defs>
<clipPath id="clip0_160_34389">
<rect width="41.6" height="41.6" fill="white" transform="translate(0.239258 0.385742)"/>
</clipPath>
</defs>
</svg>
