<svg width="73" height="73" viewBox="0 0 73 73" fill="none" xmlns="http://www.w3.org/2000/svg">
<path d="M63.465 54.5071H57.4934V45.5497C57.4934 44.7578 57.1788 43.9983 56.6189 43.4384C56.0589 42.8784 55.2994 42.5638 54.5076 42.5638H39.5784V34.4723L42.9524 36.2339C43.4445 36.4913 43.9985 36.6064 44.5524 36.5662C45.1062 36.526 45.6379 36.3322 46.0876 36.0065C46.5374 35.6809 46.8874 35.2362 47.0984 34.7225C47.3093 34.2089 47.3729 33.6466 47.2819 33.0988L46.0875 26.0224L51.2231 20.9763C51.6121 20.5965 51.89 20.1176 52.0268 19.5915C52.1636 19.0653 52.1542 18.5117 51.9995 17.9905C51.8264 17.4598 51.5081 16.9883 51.0806 16.6294C50.6531 16.2706 50.1336 16.0387 49.5809 15.9601L42.5643 14.8554L39.2799 8.40601C39.0354 7.9012 38.6536 7.47546 38.1783 7.17757C37.7031 6.87968 37.1535 6.72168 36.5926 6.72168C36.0317 6.72168 35.4821 6.87968 35.0069 7.17757C34.5316 7.47546 34.1499 7.9012 33.9054 8.40601L30.621 14.8554L23.4848 15.9004C22.9322 15.979 22.4127 16.2108 21.9852 16.5697C21.5577 16.9286 21.2394 17.4001 21.0663 17.9308C20.9116 18.452 20.9022 19.0055 21.039 19.5317C21.1758 20.0579 21.4537 20.5368 21.8426 20.9166L27.0977 26.0224L25.9034 33.0988C25.8123 33.6466 25.8759 34.2089 26.0868 34.7225C26.2978 35.2362 26.6478 35.6809 27.0976 36.0065C27.5473 36.3322 28.079 36.526 28.6329 36.5662C29.1867 36.6064 29.7408 36.4913 30.2328 36.2339L33.6068 34.4723V42.5638H18.6777C17.8858 42.5638 17.1263 42.8784 16.5664 43.4384C16.0064 43.9983 15.6918 44.7578 15.6918 45.5497V54.5071H9.7202C8.92831 54.5071 8.16885 54.8217 7.6089 55.3817C7.04895 55.9416 6.73438 56.7011 6.73438 57.493V63.4646C6.73438 64.2565 7.04895 65.0159 7.6089 65.5759C8.16885 66.1358 8.92831 66.4504 9.7202 66.4504C10.5121 66.4504 11.2715 66.1358 11.8315 65.5759C12.3914 65.0159 12.706 64.2565 12.706 63.4646V60.4788H24.6493V63.4646C24.6493 64.2565 24.9639 65.0159 25.5238 65.5759C26.0838 66.1358 26.8433 66.4504 27.6351 66.4504C28.427 66.4504 29.1865 66.1358 29.7464 65.5759C30.3064 65.0159 30.621 64.2565 30.621 63.4646V57.493C30.621 56.7011 30.3064 55.9416 29.7464 55.3817C29.1865 54.8217 28.427 54.5071 27.6351 54.5071H21.6635V48.5355H51.5217V54.5071H45.5501C44.7582 54.5071 43.9987 54.8217 43.4388 55.3817C42.8788 55.9416 42.5643 56.7011 42.5643 57.493V63.4646C42.5643 64.2565 42.8788 65.0159 43.4388 65.5759C43.9987 66.1358 44.7582 66.4504 45.5501 66.4504C46.342 66.4504 47.1014 66.1358 47.6614 65.5759C48.2213 65.0159 48.5359 64.2565 48.5359 63.4646V60.4788H60.4792V63.4646C60.4792 64.2565 60.7938 65.0159 61.3537 65.5759C61.9137 66.1358 62.6731 66.4504 63.465 66.4504C64.2569 66.4504 65.0164 66.1358 65.5763 65.5759C66.1363 65.0159 66.4508 64.2565 66.4508 63.4646V57.493C66.4508 56.7011 66.1363 55.9416 65.5763 55.3817C65.0164 54.8217 64.2569 54.5071 63.465 54.5071ZM36.5926 26.53C36.1025 26.5324 35.6206 26.6555 35.1893 26.8883L32.8006 28.1423L33.2485 25.4551C33.3268 24.9797 33.289 24.4925 33.1382 24.035C32.9874 23.5774 32.7282 23.1632 32.3826 22.8275L30.4418 20.9166L33.1291 20.5285C33.6098 20.4642 34.0677 20.2838 34.4631 20.0029C34.8584 19.722 35.1794 19.349 35.3983 18.9161L36.5926 16.4677L37.7869 18.9161C38.0058 19.349 38.3268 19.722 38.7222 20.0029C39.1175 20.2838 39.5754 20.4642 40.0562 20.5285L42.7434 20.9166L40.8026 22.8275C40.457 23.1632 40.1978 23.5774 40.047 24.035C39.8962 24.4925 39.8584 24.9797 39.9367 25.4551L40.3846 28.1423L37.9959 26.8883C37.5647 26.6555 37.0827 26.5324 36.5926 26.53Z" fill="white"/>
</svg>
