<svg width="60" height="59" viewBox="0 0 60 59" fill="none" xmlns="http://www.w3.org/2000/svg">
<g clip-path="url(#clip0_160_34528)">
<path d="M58.5218 0.517511C58.8206 0.772535 59.0288 1.11737 59.1154 1.50051C59.202 1.88365 59.1623 2.28453 59.0023 2.64325C53.4332 15.1283 41.7379 32.3818 33.1767 41.3725C30.7771 43.8876 27.8177 45.8007 24.5391 46.9562C24.4736 47.7825 24.3207 48.9145 23.9567 50.1157C23.2251 52.5144 21.5289 55.4992 17.7396 56.4492C14.07 57.3231 10.2669 57.4862 6.53584 56.9297C5.84206 56.8201 5.15804 56.6558 4.49017 56.4383C3.87229 56.2503 3.2964 55.945 2.79395 55.5392C2.46261 55.2574 2.20729 54.897 2.0514 54.4909C1.85818 53.9699 1.86336 53.3959 2.06596 52.8784C2.41175 51.9866 3.21619 51.4952 3.74398 51.2332C5.17813 50.5161 6.01896 49.5842 6.89983 48.2265C7.24563 47.7024 7.56959 47.1455 7.9445 46.5085L8.37038 45.7878C8.92001 44.8596 9.55701 43.8222 10.3578 42.7011C12.2797 40.0111 14.7294 39.3341 16.7132 39.4397C17.1718 39.4651 17.5977 39.5307 17.9799 39.6144C18.2056 38.9883 18.4968 38.2312 18.8462 37.4013C19.7962 35.1481 21.2413 32.2362 23.1668 29.8702C31.0874 20.1515 45.6618 7.28057 56.3524 0.371912C56.6815 0.159482 57.0704 0.05891 57.4613 0.0851411C57.8521 0.111372 58.224 0.263007 58.5218 0.517511V0.517511ZM18.0454 43.44C17.5624 43.2299 17.0461 43.1067 16.5203 43.076C15.6248 43.0287 14.4346 43.258 13.3207 44.8195C12.6037 45.8205 12.0285 46.756 11.5007 47.6478L11.1186 48.2921C10.7327 48.9509 10.3432 49.6097 9.95376 50.214C9.21659 51.4084 8.28104 52.4682 7.18739 53.348C9.69897 53.7556 13.5064 53.752 16.8588 52.9112C18.8935 52.4052 19.9273 50.84 20.4733 49.0528C20.7368 48.1649 20.8908 47.2481 20.9319 46.3228L18.0454 43.44V43.44ZM23.287 43.5346C23.7238 43.389 24.2952 43.1706 24.9541 42.8685C27.0509 41.8957 28.9463 40.5375 30.5414 38.8645C37.4573 31.5992 46.6009 18.5899 52.5705 7.44801C43.143 14.4622 32.3104 24.4102 25.9915 32.1707C24.3826 34.1472 23.0977 36.6951 22.1986 38.8172C21.7582 39.8655 21.4197 40.7828 21.1976 41.438V41.4416L23.2906 43.5346H23.287ZM5.18541 54.6001L5.21089 54.5819C5.20306 54.5879 5.1945 54.5928 5.18541 54.5965V54.6001ZM18.2238 43.5237L18.231 43.5273H18.2238V43.5237Z" fill="white"/>
</g>
<defs>
<clipPath id="clip0_160_34528">
<rect width="58.2395" height="58.2395" fill="white" transform="translate(0.919922 0.0810547)"/>
</clipPath>
</defs>
</svg>
